<svg xmlns="http://www.w3.org/2000/svg" version="1.1" xmlns:xlink="http://www.w3.org/1999/xlink" xmlns:svgjs="http://svgjs.dev/svgjs" width="128" height="128" viewBox="0 0 128 128"><g transform="matrix(0.8046875,0,0,0.8046875,12.760752631578946,21.16312113409826)"><svg viewBox="0 0 95 79" data-background-color="#f0b1b0" preserveAspectRatio="xMidYMid meet" height="106" width="128" xmlns="http://www.w3.org/2000/svg" xmlns:xlink="http://www.w3.org/1999/xlink"><g id="tight-bounds" transform="matrix(1,0,0,1,-0.24049999999999727,0.17453005055855897)"><svg viewBox="0 0 95.481 78.65093989888288" height="78.65093989888288" width="95.481"><g><svg viewBox="0 0 95.481 78.65093989888288" height="78.65093989888288" width="95.481"><g><svg viewBox="0 0 95.481 78.65093989888288" height="78.65093989888288" width="95.481"><g id="textblocktransform"><svg viewBox="0 0 95.481 78.65093989888288" height="78.65093989888288" width="95.481" id="textblock"><g><svg viewBox="0 0 95.481 78.65093989888288" height="78.65093989888288" width="95.481"><g><svg viewBox="0 0 95.481 78.65093989888288" height="78.65093989888288" width="95.481"><g><svg xmlns="http://www.w3.org/2000/svg" xmlns:xlink="http://www.w3.org/1999/xlink" version="1.1" x="0" y="0" viewBox="8.980000000000011 16.210690098282655 82.0390018990418 67.57830990171738" enable-background="new 0 0 100 100" xml:space="preserve" height="78.65093989888288" width="95.481" class="icon-icon-0" data-fill-palette-color="accent" id="icon-0"><path d="M87.498 41.873h-2.582c-0.002 0-0.003 0-0.005 0-1.717-5.242-5.057-9.883-9.513-13.482-0.005-0.169-0.03-0.342-0.08-0.518-0.933-3.282 0.22-6.285 1.568-8.435 0.945-1.508-0.278-3.43-2.044-3.21-5.957 0.741-9.138 3.675-10.787 6.121-3.565-1.128-7.409-1.744-11.419-1.744-14.081 0-26.135 7.586-31.12 18.342-3.136-0.57-5.145-1.787-6.394-3.106 2.064-0.902 3.88-2.161 4.468-3.362 1.223-2.499-0.525-4.101-0.525-4.101s-5.04-4.922-7.248 2.432c-0.532 1.773-0.26 3.413 0.459 4.882-1.783 0.791-3.296 1.341-3.296 1.341 1.031 0.195 2.415 0.027 3.847-0.372 1.905 2.932 5.445 5.061 7.282 6.026-0.681 2.332-1.043 4.775-1.043 7.293 0 2.094 0.252 4.136 0.728 6.105l-0.002-0.001c0 0 0.008 0.031 0.024 0.09 0.501 2.043 1.243 4.007 2.202 5.868 1.266 2.731 3.111 5.93 5.631 8.525 3.659 3.766 4.282 8.438 4.371 10.448v0.867c0 0.038 0.003 0.075 0.006 0.112-0.001 0.013-0.001 0.019-0.001 0.019l0.002-0.002c0.067 0.993 0.891 1.778 1.901 1.778h11.635c1.053 0 1.907-0.854 1.907-1.907v-2.874c1.684 0.228 3.409 0.346 5.166 0.346 1.372 0 2.724-0.074 4.053-0.214v2.741c0 1.053 0.854 1.907 1.907 1.907h11.635c1.053 0 1.907-0.854 1.907-1.907v-2.875c0.023-0.956 0.349-4.752 3.931-7.997 0.152-0.13 0.304-0.261 0.453-0.394 0.02-0.017 0.039-0.034 0.059-0.05l-0.006 0.003c3.995-3.556 6.963-7.999 8.484-12.96h2.437c1.946 0 3.523-1.577 3.523-3.523v-8.69C91.021 43.45 89.443 41.873 87.498 41.873zM13.319 31.273c0.999-4.261 4.784-1.973 4.614 0.5-0.062 0.896-1.765 2.008-3.67 2.979C13.328 33.304 13.169 31.912 13.319 31.273zM70.089 39.616c0-1.589 1.288-2.877 2.877-2.877 1.589 0 2.877 1.288 2.877 2.877 0 1.589-1.288 2.877-2.877 2.877C71.377 42.493 70.089 41.205 70.089 39.616zM38.132 32.37l-2.083-2.548c0.108-0.088 2.689-2.172 7.184-3.586 4.105-1.291 10.692-2.264 18.763 0.438l-1.045 3.121C47.157 25.177 38.22 32.298 38.132 32.37z" fill="#374151" data-fill-palette-color="accent"></path></svg></g></svg></g></svg></g></svg></g></svg></g><g></g></svg></g><defs></defs></svg><rect width="95.481" height="78.65093989888288" fill="none" stroke="none" visibility="hidden"></rect></g></svg></g></svg>