<svg viewBox="0 0 395.52 119.78436199482863" height="119.78436199482863" width="395.52" data-background-color="#f0b1b0" preserveAspectRatio="xMidYMid meet" id="tight-bounds" xmlns="http://www.w3.org/2000/svg" xmlns:xlink="http://www.w3.org/1999/xlink"><g><svg viewBox="0 0 664.8322346320506 201.3463416742425" height="119.78436199482863" width="395.52"><g transform="matrix(1,0,0,1,269.3122346320506,12.711560940928294)"><svg viewBox="0 0 395.52 175.9232197923859" height="175.9232197923859" width="395.52"><g id="textblocktransform"><svg viewBox="0 0 395.52 175.9232197923859" height="175.9232197923859" width="395.52" id="textblock"><g><svg viewBox="0 0 395.52 105.39349460364718" height="105.39349460364718" width="395.52"><g transform="matrix(1,0,0,1,0,0)"><svg width="395.52" viewBox="1.75 -35.29999923706055 134.33999633789062 35.79999923706055" height="105.39349460364718" data-palette-color="#374151"><g class="undefined-text-0" data-fill-palette-color="primary" id="text-0"><path d="M1.75 0L12.3 0 12.3-2.5 7.2-2.5 7.2-16.25 12.7-16.25Q17.8-16.25 20.55-18.82 23.3-21.4 23.3-25.75L23.3-25.75Q23.3-28.25 22.18-30 21.05-31.75 19.4-32.85L19.4-32.85Q17.7-33.95 15.78-34.48 13.85-35 12.25-35L12.25-35 1.75-35 1.75-32.5 4.6-32.5 4.6-2.5 1.75-2.5 1.75 0ZM7.2-18.75L7.2-32.5 12.2-32.5Q14-32.5 15.55-31.95 17.1-31.4 18.25-30.5L18.25-30.5Q19.4-29.55 20.05-28.33 20.7-27.1 20.7-25.75L20.7-25.75Q20.7-24.65 20.3-23.4 19.9-22.15 18.95-21.15L18.95-21.15Q17.95-20.1 16.3-19.43 14.65-18.75 12.15-18.75L12.15-18.75 7.2-18.75ZM26.8 0L37.35 0 37.35-2.5 33.3-2.5 33.3-32.5 37.35-32.5 37.35-35 26.8-35 26.8-32.5 30.7-32.5 30.7-2.5 26.8-2.5 26.8 0ZM67.8-2L67.8-2 67.8-14.9 58.5-14.9 58.5-12.4 65.19-12.4 65.19-3.5Q63.7-2.75 62.05-2.38 60.39-2 58.64-2L58.64-2Q55.5-2 52.74-3.2 49.99-4.4 47.95-6.5L47.95-6.5Q45.84-8.55 44.64-11.35 43.45-14.15 43.45-17.35L43.45-17.35Q43.45-20.5 44.64-23.33 45.84-26.15 47.95-28.25L47.95-28.25Q49.99-30.35 52.77-31.58 55.55-32.8 58.7-32.8L58.7-32.8Q60.8-32.8 62.75-32.25 64.69-31.7 66.39-30.7L66.39-30.7 67.84-32.8Q65.8-34 63.52-34.65 61.25-35.3 58.7-35.3L58.7-35.3Q54.99-35.3 51.74-33.88 48.49-32.45 46.09-30.05L46.09-30.05Q43.64-27.6 42.24-24.33 40.84-21.05 40.84-17.35L40.84-17.35Q40.84-13.65 42.24-10.4 43.64-7.15 46.09-4.75L46.09-4.75Q48.49-2.3 51.74-0.9 54.99 0.5 58.7 0.5L58.7 0.5Q61.25 0.5 63.52-0.18 65.8-0.85 67.8-2ZM98.24-2L98.24-2 98.24-14.9 88.94-14.9 88.94-12.4 95.64-12.4 95.64-3.5Q94.14-2.75 92.49-2.38 90.84-2 89.09-2L89.09-2Q85.94-2 83.19-3.2 80.44-4.4 78.39-6.5L78.39-6.5Q76.29-8.55 75.09-11.35 73.89-14.15 73.89-17.35L73.89-17.35Q73.89-20.5 75.09-23.33 76.29-26.15 78.39-28.25L78.39-28.25Q80.44-30.35 83.22-31.58 85.99-32.8 89.14-32.8L89.14-32.8Q91.24-32.8 93.19-32.25 95.14-31.7 96.84-30.7L96.84-30.7 98.29-32.8Q96.24-34 93.97-34.65 91.69-35.3 89.14-35.3L89.14-35.3Q85.44-35.3 82.19-33.88 78.94-32.45 76.54-30.05L76.54-30.05Q74.09-27.6 72.69-24.33 71.29-21.05 71.29-17.35L71.29-17.35Q71.29-13.65 72.69-10.4 74.09-7.15 76.54-4.75L76.54-4.75Q78.94-2.3 82.19-0.9 85.44 0.5 89.14 0.5L89.14 0.5Q91.69 0.5 93.97-0.18 96.24-0.85 98.24-2ZM113.74 0L124.34 0 124.34-2.5 120.49-2.5 120.49-13.3Q123.34-18.1 126.19-22.9 129.04-27.7 131.89-32.5L131.89-32.5 136.09-32.5 136.09-35 125.54-35 125.54-32.5 128.69-32.5 119.54-17.1 118.94-15.65 118.89-15.65 118.34-17.1Q116.04-20.95 113.74-24.8 111.44-28.65 109.09-32.5L109.09-32.5 112.29-32.5 112.29-35 101.74-35 101.74-32.5 105.89-32.5Q108.79-27.7 111.64-22.9 114.49-18.1 117.39-13.3L117.39-13.3 117.39-2.5 113.74-2.5 113.74 0Z" fill="#374151" data-fill-palette-color="primary"/></g></svg></g></svg></g><g transform="matrix(1,0,0,1,0,130.2743692356978)"><svg viewBox="0 0 395.52 45.648850556688096" height="45.648850556688096" width="395.52"><g transform="matrix(1,0,0,1,0,0)"><svg width="395.52" viewBox="1.4500000476837158 -36.29999923706055 318.8199768066406 36.79999923706055" height="45.648850556688096" data-palette-color="#374151"><path d="M6.45-30.65Q6.25-31.3 5.83-31.65 5.4-32 4.85-32L4.85-32Q4.55-32 4.4-31.95L4.4-31.95Q3.7-31.65 3.6-31.35L3.6-31.35 1.45-32.95Q1.95-34.05 3.65-34.65L3.65-34.65Q4.25-34.85 5.05-34.85L5.05-34.85Q6.45-34.85 7.6-33.98 8.75-33.1 9.25-31.5L9.25-31.5 17.8-5 18-3.95 18.25-5 27.65-34.25 30.6-34.25 40-5 40.3-3.6 40.45-5 49.85-34.25 52.85-34.25 41.7 0 38.75 0 29.1-29.55 19.5 0 16.55 0 6.45-30.65ZM65.2 0.5Q61.75 0.5 59.3-1.25 56.85-3 55.6-5.9 54.35-8.8 54.35-12.3L54.35-12.3Q54.35-16.15 55.85-19.13 57.35-22.1 60.15-23.75 62.95-25.4 66.7-25.4L66.7-25.4Q67.85-25.4 69.6-25.28 71.35-25.15 72.7-24.95L72.7-24.95 75.7-24.95 75.7-4.3Q75.7-3.3 76.17-2.78 76.65-2.25 77.35-2.25L77.35-2.25Q78.25-2.25 78.8-3.1L78.8-3.1 80.95-1.4Q80.2-0.35 79.27 0.08 78.35 0.5 77.15 0.5L77.15 0.5Q75.4 0.5 74.07-0.7 72.75-1.9 72.75-3.6L72.75-3.6Q71.55-1.6 69.6-0.55 67.65 0.5 65.2 0.5L65.2 0.5ZM65.25-2.2Q67.5-2.2 69.3-3.3 71.1-4.4 72-6.2L72-6.2Q72.7-7.65 72.7-9.4L72.7-9.4 72.7-22.5 69.4-22.6 66.5-22.7Q61.95-22.7 59.65-19.85 57.35-17 57.35-12.4L57.35-12.4Q57.35-8.15 59.37-5.18 61.4-2.2 65.25-2.2L65.25-2.2ZM88.35-4.2Q88.35-3.5 88.82-3.03 89.3-2.55 89.95-2.55L89.95-2.55Q90.95-2.55 91.4-3.4L91.4-3.4 93.6-1.75Q93.2-0.9 92.2-0.33 91.2 0.25 89.95 0.25L89.95 0.25Q87.95 0.25 86.65-1 85.35-2.25 85.35-4.25L85.35-4.25 85.35-36.3 88.35-36.3 88.35-4.2ZM100.99-4.2Q100.99-3.5 101.47-3.03 101.94-2.55 102.59-2.55L102.59-2.55Q103.59-2.55 104.04-3.4L104.04-3.4 106.24-1.75Q105.84-0.9 104.84-0.33 103.84 0.25 102.59 0.25L102.59 0.25Q100.59 0.25 99.29-1 97.99-2.25 97.99-4.25L97.99-4.25 97.99-36.3 100.99-36.3 100.99-4.2ZM119.64 0.5Q115.89 0.5 113.29-1.05 110.69-2.6 109.37-5.33 108.04-8.05 108.04-11.5L108.04-11.5Q108.04-14.9 109.32-18.1 110.59-21.3 113.17-23.35 115.74-25.4 119.44-25.4L119.44-25.4Q121.89-25.4 123.99-24.45 126.09-23.5 127.32-21.75 128.54-20 128.54-17.7L128.54-17.7Q128.54-14 125.39-11.98 122.24-9.95 116.69-10L116.69-10 111.19-10.05Q111.64-6.2 113.77-4.2 115.89-2.2 119.64-2.2L119.64-2.2Q121.89-2.2 123.82-2.83 125.74-3.45 127.54-4.75L127.54-4.75 129.04-2.75Q127.14-1.25 124.72-0.38 122.29 0.5 119.64 0.5L119.64 0.5ZM117.34-12.6Q125.54-12.6 125.54-17.75L125.54-17.75Q125.54-20.25 123.82-21.48 122.09-22.7 119.59-22.7L119.59-22.7Q116.79-22.7 114.87-21.1 112.94-19.5 111.99-17.15 111.04-14.8 111.04-12.6L111.04-12.6 117.34-12.6ZM141.04 0.5Q137.64 0.5 136.04-1.43 134.44-3.35 134.44-7.2L134.44-7.2 134.44-31.25 137.44-31.25 137.44-24.9 145.29-24.9 145.29-22.2 137.44-22.2 137.44-7.2Q137.44-2.2 141.04-2.2L141.04-2.2Q143.89-2.2 145.44-5.25L145.44-5.25 147.69-3.7Q146.54-1.6 144.94-0.55 143.34 0.5 141.04 0.5L141.04 0.5ZM172.83 0.5Q169.43 0.5 167.83-1.43 166.23-3.35 166.23-7.2L166.23-7.2 166.23-31.25 169.23-31.25 169.23-24.9 177.08-24.9 177.08-22.2 169.23-22.2 169.23-7.2Q169.23-2.2 172.83-2.2L172.83-2.2Q175.68-2.2 177.23-5.25L177.23-5.25 179.48-3.7Q178.33-1.6 176.73-0.55 175.13 0.5 172.83 0.5L172.83 0.5ZM194.58-25.5Q196.08-25.5 197.58-25.05L197.58-25.05 197.58-22.25Q196.13-22.6 194.68-22.6L194.68-22.6Q192.13-22.6 190.53-21.35L190.53-21.35Q188.93-20.1 187.68-17.8L187.68-17.8 187.68 0 184.68 0 184.68-17.5Q184.68-21.45 182.58-23.3L182.58-23.3 184.58-25.3Q185.48-24.75 186.28-23.65 187.08-22.55 187.43-21.2L187.43-21.2Q188.83-23.5 190.23-24.35L190.23-24.35Q191.98-25.5 194.58-25.5L194.58-25.5ZM210.78 0.5Q207.33 0.5 204.88-1.25 202.43-3 201.18-5.9 199.93-8.8 199.93-12.3L199.93-12.3Q199.93-16.15 201.43-19.13 202.93-22.1 205.73-23.75 208.53-25.4 212.28-25.4L212.28-25.4Q213.43-25.4 215.18-25.28 216.93-25.15 218.28-24.95L218.28-24.95 221.28-24.95 221.28-4.3Q221.28-3.3 221.75-2.78 222.23-2.25 222.93-2.25L222.93-2.25Q223.83-2.25 224.38-3.1L224.38-3.1 226.53-1.4Q225.78-0.35 224.85 0.08 223.93 0.5 222.73 0.5L222.73 0.5Q220.98 0.5 219.65-0.7 218.33-1.9 218.33-3.6L218.33-3.6Q217.13-1.6 215.18-0.55 213.23 0.5 210.78 0.5L210.78 0.5ZM210.83-2.2Q213.08-2.2 214.88-3.3 216.68-4.4 217.58-6.2L217.58-6.2Q218.28-7.65 218.28-9.4L218.28-9.4 218.28-22.5 214.98-22.6 212.08-22.7Q207.53-22.7 205.23-19.85 202.93-17 202.93-12.4L202.93-12.4Q202.93-8.15 204.95-5.18 206.98-2.2 210.83-2.2L210.83-2.2ZM240.28 0.3Q234.58 0.3 231.48-2.88 228.38-6.05 228.38-11.9L228.38-11.9Q228.38-15.95 229.83-19.05 231.28-22.15 233.88-23.88 236.48-25.6 239.88-25.6L239.88-25.6Q242.43-25.6 244.48-24.6 246.53-23.6 247.7-21.88 248.88-20.15 248.88-18L248.88-18 246.08-18Q246.08-20.15 244.38-21.53 242.68-22.9 239.98-22.9L239.98-22.9Q236.03-22.9 233.7-19.9 231.38-16.9 231.38-11.85L231.38-11.85Q231.38-7.25 233.68-4.83 235.98-2.4 240.28-2.4L240.28-2.4Q242.13-2.4 243.98-2.93 245.83-3.45 248.18-4.7L248.18-4.7 249.48-2.6Q245.23 0.3 240.28 0.3L240.28 0.3ZM254.92-36.3L257.92-36.3 257.92-20.75Q259.12-23.05 261.25-24.33 263.37-25.6 265.92-25.6L265.92-25.6Q269.27-25.6 271.45-23.45 273.62-21.3 273.62-17.95L273.62-17.95Q273.62-15.25 272.25-13.4 270.87-11.55 268.92-10.75L268.92-10.75 273.42-3.2Q273.87-2.35 274.72-2.35L274.72-2.35Q275.37-2.35 275.72-2.85L275.72-2.85 277.87-1.15Q276.57 0.45 274.72 0.45L274.72 0.45Q273.52 0.45 272.45-0.1 271.37-0.65 270.77-1.7L270.77-1.7 266.02-9.95 257.92-9.95 257.92 0 254.92 0 254.92-36.3ZM263.67-12.75Q265.92-12.75 267.47-13.4L267.47-13.4Q270.77-14.8 270.77-18.05L270.77-18.05Q270.77-20.15 269.4-21.48 268.02-22.8 265.67-22.8L265.67-22.8Q263.12-22.8 261.32-21.15 259.52-19.5 258.57-16.35L258.57-16.35Q258.07-14.7 258.02-12.75L258.02-12.75 263.67-12.75ZM291.92 0.5Q288.17 0.5 285.57-1.05 282.97-2.6 281.65-5.33 280.32-8.05 280.32-11.5L280.32-11.5Q280.32-14.9 281.6-18.1 282.87-21.3 285.45-23.35 288.02-25.4 291.72-25.4L291.72-25.4Q294.17-25.4 296.27-24.45 298.37-23.5 299.6-21.75 300.82-20 300.82-17.7L300.82-17.7Q300.82-14 297.67-11.98 294.52-9.95 288.97-10L288.97-10 283.47-10.05Q283.92-6.2 286.05-4.2 288.17-2.2 291.92-2.2L291.92-2.2Q294.17-2.2 296.1-2.83 298.02-3.45 299.82-4.75L299.82-4.75 301.32-2.75Q299.42-1.25 297-0.38 294.57 0.5 291.92 0.5L291.92 0.5ZM289.62-12.6Q297.82-12.6 297.82-17.75L297.82-17.75Q297.82-20.25 296.1-21.48 294.37-22.7 291.87-22.7L291.87-22.7Q289.07-22.7 287.15-21.1 285.22-19.5 284.27-17.15 283.32-14.8 283.32-12.6L283.32-12.6 289.62-12.6ZM317.27-25.5Q318.77-25.5 320.27-25.05L320.27-25.05 320.27-22.25Q318.82-22.6 317.37-22.6L317.37-22.6Q314.82-22.6 313.22-21.35L313.22-21.35Q311.62-20.1 310.37-17.8L310.37-17.8 310.37 0 307.37 0 307.37-17.5Q307.37-21.45 305.27-23.3L305.27-23.3 307.27-25.3Q308.17-24.75 308.97-23.65 309.77-22.55 310.12-21.2L310.12-21.2Q311.52-23.5 312.92-24.35L312.92-24.35Q314.67-25.5 317.27-25.5L317.27-25.5Z" opacity="1" transform="matrix(1,0,0,1,0,0)" fill="#374151" class="undefined-text-1" data-fill-palette-color="secondary" id="text-1"/></svg></g></svg></g></svg></g></svg></g><g><svg viewBox="0 0 244.43135999999998 201.3463416742425" height="201.3463416742425" width="244.43135999999998"><g><svg xmlns="http://www.w3.org/2000/svg" xmlns:xlink="http://www.w3.org/1999/xlink" version="1.1" x="0" y="0" viewBox="8.979999542236328 16.210691452026367 82.03901672363281 67.57830047607422" enable-background="new 0 0 100 100" xml:space="preserve" height="201.3463416742425" width="244.43135999999998" class="icon-icon-0" data-fill-palette-color="accent" id="icon-0"><path d="M87.498 41.873h-2.582c-0.002 0-0.003 0-0.005 0-1.717-5.242-5.057-9.883-9.513-13.482-0.005-0.169-0.03-0.342-0.08-0.518-0.933-3.282 0.22-6.285 1.568-8.435 0.945-1.508-0.278-3.43-2.044-3.21-5.957 0.741-9.138 3.675-10.787 6.121-3.565-1.128-7.409-1.744-11.419-1.744-14.081 0-26.135 7.586-31.12 18.342-3.136-0.57-5.145-1.787-6.394-3.106 2.064-0.902 3.88-2.161 4.468-3.362 1.223-2.499-0.525-4.101-0.525-4.101s-5.04-4.922-7.248 2.432c-0.532 1.773-0.26 3.413 0.459 4.882-1.783 0.791-3.296 1.341-3.296 1.341 1.031 0.195 2.415 0.027 3.847-0.372 1.905 2.932 5.445 5.061 7.282 6.026-0.681 2.332-1.043 4.775-1.043 7.293 0 2.094 0.252 4.136 0.728 6.105l-0.002-0.001c0 0 0.008 0.031 0.024 0.09 0.501 2.043 1.243 4.007 2.202 5.868 1.266 2.731 3.111 5.93 5.631 8.525 3.659 3.766 4.282 8.438 4.371 10.448v0.867c0 0.038 0.003 0.075 0.006 0.112-0.001 0.013-0.001 0.019-0.001 0.019l0.002-0.002c0.067 0.993 0.891 1.778 1.901 1.778h11.635c1.053 0 1.907-0.854 1.907-1.907v-2.874c1.684 0.228 3.409 0.346 5.166 0.346 1.372 0 2.724-0.074 4.053-0.214v2.741c0 1.053 0.854 1.907 1.907 1.907h11.635c1.053 0 1.907-0.854 1.907-1.907v-2.875c0.023-0.956 0.349-4.752 3.931-7.997 0.152-0.13 0.304-0.261 0.453-0.394 0.02-0.017 0.039-0.034 0.059-0.05l-0.006 0.003c3.995-3.556 6.963-7.999 8.484-12.96h2.437c1.946 0 3.523-1.577 3.523-3.523v-8.69C91.021 43.45 89.443 41.873 87.498 41.873zM13.319 31.273c0.999-4.261 4.784-1.973 4.614 0.5-0.062 0.896-1.765 2.008-3.67 2.979C13.328 33.304 13.169 31.912 13.319 31.273zM70.089 39.616c0-1.589 1.288-2.877 2.877-2.877 1.589 0 2.877 1.288 2.877 2.877 0 1.589-1.288 2.877-2.877 2.877C71.377 42.493 70.089 41.205 70.089 39.616zM38.132 32.37l-2.083-2.548c0.108-0.088 2.689-2.172 7.184-3.586 4.105-1.291 10.692-2.264 18.763 0.438l-1.045 3.121C47.157 25.177 38.22 32.298 38.132 32.37z" fill="#374151" data-fill-palette-color="accent"/></svg></g></svg></g></svg></g><defs/></svg>